<svg width="1920" height="1080" viewBox="0 0 1920 1080" xmlns="http://www.w3.org/2000/svg">
  <!-- Sky gradient background -->
  <defs>
    <linearGradient id="skyGradient" x1="0%" y1="0%" x2="0%" y2="100%">
      <stop offset="0%" style="stop-color:#87CEEB;stop-opacity:1" />
      <stop offset="70%" style="stop-color:#98FB98;stop-opacity:1" />
      <stop offset="100%" style="stop-color:#90EE90;stop-opacity:1" />
    </linearGradient>
    
    <linearGradient id="treeGradient" x1="0%" y1="0%" x2="0%" y2="100%">
      <stop offset="0%" style="stop-color:#228B22;stop-opacity:1" />
      <stop offset="100%" style="stop-color:#32CD32;stop-opacity:1" />
    </linearGradient>
    
    <linearGradient id="groundGradient" x1="0%" y1="0%" x2="0%" y2="100%">
      <stop offset="0%" style="stop-color:#90EE90;stop-opacity:1" />
      <stop offset="100%" style="stop-color:#8FBC8F;stop-opacity:1" />
    </linearGradient>
  </defs>
  
  <!-- Background -->
  <rect width="1920" height="1080" fill="url(#skyGradient)"/>
  
  <!-- Ground -->
  <rect x="0" y="800" width="1920" height="280" fill="url(#groundGradient)"/>
  
  <!-- Large background trees -->
  <g opacity="0.3">
    <!-- Tree 1 -->
    <rect x="100" y="600" width="40" height="200" fill="#8B4513"/>
    <ellipse cx="120" cy="580" rx="80" ry="60" fill="url(#treeGradient)"/>
    <ellipse cx="120" cy="520" rx="60" ry="50" fill="url(#treeGradient)"/>
    <ellipse cx="120" cy="470" rx="40" ry="40" fill="url(#treeGradient)"/>
    
    <!-- Tree 2 -->
    <rect x="300" y="550" width="35" height="250" fill="#8B4513"/>
    <ellipse cx="317" cy="530" rx="70" ry="55" fill="url(#treeGradient)"/>
    <ellipse cx="317" cy="480" rx="55" ry="45" fill="url(#treeGradient)"/>
    <ellipse cx="317" cy="440" rx="35" ry="35" fill="url(#treeGradient)"/>
    
    <!-- Tree 3 -->
    <rect x="500" y="620" width="45" height="180" fill="#8B4513"/>
    <ellipse cx="522" cy="600" rx="90" ry="70" fill="url(#treeGradient)"/>
    <ellipse cx="522" cy="540" rx="70" ry="60" fill="url(#treeGradient)"/>
    <ellipse cx="522" cy="490" rx="50" ry="50" fill="url(#treeGradient)"/>
    
    <!-- Tree 4 -->
    <rect x="1500" y="580" width="40" height="220" fill="#8B4513"/>
    <ellipse cx="1520" cy="560" rx="85" ry="65" fill="url(#treeGradient)"/>
    <ellipse cx="1520" cy="500" rx="65" ry="55" fill="url(#treeGradient)"/>
    <ellipse cx="1520" cy="450" rx="45" ry="45" fill="url(#treeGradient)"/>
    
    <!-- Tree 5 -->
    <rect x="1700" y="600" width="35" height="200" fill="#8B4513"/>
    <ellipse cx="1717" cy="580" rx="75" ry="60" fill="url(#treeGradient)"/>
    <ellipse cx="1717" cy="530" rx="60" ry="50" fill="url(#treeGradient)"/>
    <ellipse cx="1717" cy="490" rx="40" ry="40" fill="url(#treeGradient)"/>
  </g>
  
  <!-- Medium trees -->
  <g opacity="0.6">
    <!-- Tree 6 -->
    <rect x="200" y="700" width="25" height="150" fill="#8B4513"/>
    <ellipse cx="212" cy="680" rx="50" ry="40" fill="url(#treeGradient)"/>
    <ellipse cx="212" cy="640" rx="35" ry="30" fill="url(#treeGradient)"/>
    
    <!-- Tree 7 -->
    <rect x="400" y="720" width="30" height="140" fill="#8B4513"/>
    <ellipse cx="415" cy="700" rx="60" ry="45" fill="url(#treeGradient)"/>
    <ellipse cx="415" cy="660" rx="45" ry="35" fill="url(#treeGradient)"/>
    
    <!-- Tree 8 -->
    <rect x="800" y="680" width="28" height="160" fill="#8B4513"/>
    <ellipse cx="814" cy="660" rx="55" ry="42" fill="url(#treeGradient)"/>
    <ellipse cx="814" cy="620" rx="40" ry="32" fill="url(#treeGradient)"/>
    
    <!-- Tree 9 -->
    <rect x="1200" y="700" width="26" height="150" fill="#8B4513"/>
    <ellipse cx="1213" cy="680" rx="48" ry="38" fill="url(#treeGradient)"/>
    <ellipse cx="1213" cy="645" rx="35" ry="28" fill="url(#treeGradient)"/>
  </g>
  
  <!-- Small bushes and plants -->
  <g opacity="0.8">
    <!-- Bush 1 -->
    <ellipse cx="150" cy="800" rx="40" ry="25" fill="#32CD32"/>
    <ellipse cx="150" cy="780" rx="30" ry="20" fill="#228B22"/>
    
    <!-- Bush 2 -->
    <ellipse cx="350" cy="820" rx="35" ry="22" fill="#32CD32"/>
    <ellipse cx="350" cy="805" rx="25" ry="18" fill="#228B22"/>
    
    <!-- Bush 3 -->
    <ellipse cx="600" cy="810" rx="42" ry="28" fill="#32CD32"/>
    <ellipse cx="600" cy="790" rx="32" ry="22" fill="#228B22"/>
    
    <!-- Bush 4 -->
    <ellipse cx="900" cy="800" rx="38" ry="24" fill="#32CD32"/>
    <ellipse cx="900" cy="785" rx="28" ry="19" fill="#228B22"/>
    
    <!-- Bush 5 -->
    <ellipse cx="1300" cy="820" rx="36" ry="23" fill="#32CD32"/>
    <ellipse cx="1300" cy="805" rx="26" ry="17" fill="#228B22"/>
    
    <!-- Bush 6 -->
    <ellipse cx="1600" cy="800" rx="40" ry="26" fill="#32CD32"/>
    <ellipse cx="1600" cy="780" rx="30" ry="20" fill="#228B22"/>
  </g>
  
  <!-- Animals and creatures -->
  <g opacity="0.9">
    <!-- Bird 1 -->
    <ellipse cx="200" cy="200" rx="15" ry="8" fill="#FFD700"/>
    <circle cx="195" cy="195" r="3" fill="#000"/>
    <path d="M 185 200 Q 190 195 195 200" stroke="#FF6B6B" stroke-width="2" fill="none"/>
    
    <!-- Bird 2 -->
    <ellipse cx="400" cy="180" rx="12" ry="6" fill="#FF69B4"/>
    <circle cx="395" cy="177" r="2" fill="#000"/>
    <path d="M 385 180 Q 390 177 395 180" stroke="#FF1493" stroke-width="2" fill="none"/>
    
    <!-- Bird 3 -->
    <ellipse cx="600" cy="220" rx="14" ry="7" fill="#32CD32"/>
    <circle cx="595" cy="217" r="2" fill="#000"/>
    <path d="M 585 220 Q 590 217 595 220" stroke="#228B22" stroke-width="2" fill="none"/>
    
    <!-- Bird 4 -->
    <ellipse cx="800" cy="190" rx="13" ry="6" fill="#FF4500"/>
    <circle cx="795" cy="187" r="2" fill="#000"/>
    <path d="M 785 190 Q 790 187 795 190" stroke="#FF6347" stroke-width="2" fill="none"/>
    
    <!-- Bird 5 -->
    <ellipse cx="1000" cy="210" rx="11" ry="5" fill="#9370DB"/>
    <circle cx="995" cy="208" r="2" fill="#000"/>
    <path d="M 985 210 Q 990 208 995 210" stroke="#8A2BE2" stroke-width="2" fill="none"/>
    
    <!-- Bird 6 -->
    <ellipse cx="1200" cy="180" rx="16" ry="8" fill="#FFD700"/>
    <circle cx="1195" cy="177" r="3" fill="#000"/>
    <path d="M 1185 180 Q 1190 177 1195 180" stroke="#FFA500" stroke-width="2" fill="none"/>
    
    <!-- Bird 7 -->
    <ellipse cx="1400" cy="200" rx="12" ry="6" fill="#00CED1"/>
    <circle cx="1395" cy="197" r="2" fill="#000"/>
    <path d="M 1385 200 Q 1390 197 1395 200" stroke="#20B2AA" stroke-width="2" fill="none"/>
    
    <!-- Bird 8 -->
    <ellipse cx="1600" cy="190" rx="14" ry="7" fill="#FF69B4"/>
    <circle cx="1595" cy="187" r="2" fill="#000"/>
    <path d="M 1585 190 Q 1590 187 1595 190" stroke="#FF1493" stroke-width="2" fill="none"/>
    
    <!-- Bird 9 -->
    <ellipse cx="1800" cy="220" rx="13" ry="6" fill="#32CD32"/>
    <circle cx="1795" cy="217" r="2" fill="#000"/>
    <path d="M 1785 220 Q 1790 217 1795 220" stroke="#228B22" stroke-width="2" fill="none"/>
  </g>
  
  <!-- Butterflies -->
  <g opacity="0.8">
    <!-- Butterfly 1 -->
    <ellipse cx="250" cy="300" rx="8" ry="12" fill="#FFD700"/>
    <ellipse cx="250" cy="300" rx="6" ry="10" fill="#FF6B6B"/>
    <ellipse cx="250" cy="300" rx="4" ry="8" fill="#FFD700"/>
    
    <!-- Butterfly 2 -->
    <ellipse cx="450" cy="280" rx="7" ry="11" fill="#9370DB"/>
    <ellipse cx="450" cy="280" rx="5" ry="9" fill="#FF69B4"/>
    <ellipse cx="450" cy="280" rx="3" ry="7" fill="#9370DB"/>
    
    <!-- Butterfly 3 -->
    <ellipse cx="650" cy="320" rx="9" ry="13" fill="#32CD32"/>
    <ellipse cx="650" cy="320" rx="7" ry="11" fill="#FFD700"/>
    <ellipse cx="650" cy="320" rx="5" ry="9" fill="#32CD32"/>
    
    <!-- Butterfly 4 -->
    <ellipse cx="850" cy="290" rx="8" ry="12" fill="#FF4500"/>
    <ellipse cx="850" cy="290" rx="6" ry="10" fill="#FFD700"/>
    <ellipse cx="850" cy="290" rx="4" ry="8" fill="#FF4500"/>
    
    <!-- Butterfly 5 -->
    <ellipse cx="1050" cy="310" rx="7" ry="11" fill="#00CED1"/>
    <ellipse cx="1050" cy="310" rx="5" ry="9" fill="#FF69B4"/>
    <ellipse cx="1050" cy="310" rx="3" ry="7" fill="#00CED1"/>
    
    <!-- Butterfly 6 -->
    <ellipse cx="1250" cy="280" rx="8" ry="12" fill="#FFD700"/>
    <ellipse cx="1250" cy="280" rx="6" ry="10" fill="#FF6B6B"/>
    <ellipse cx="1250" cy="280" rx="4" ry="8" fill="#FFD700"/>
    
    <!-- Butterfly 7 -->
    <ellipse cx="1450" cy="300" rx="7" ry="11" fill="#9370DB"/>
    <ellipse cx="1450" cy="300" rx="5" ry="9" fill="#32CD32"/>
    <ellipse cx="1450" cy="300" rx="3" ry="7" fill="#9370DB"/>
    
    <!-- Butterfly 8 -->
    <ellipse cx="1650" cy="290" rx="9" ry="13" fill="#FF69B4"/>
    <ellipse cx="1650" cy="290" rx="7" ry="11" fill="#FFD700"/>
    <ellipse cx="1650" cy="290" rx="5" ry="9" fill="#FF69B4"/>
  </g>
  
  <!-- Flowers -->
  <g opacity="0.9">
    <!-- Flower 1 -->
    <circle cx="180" cy="850" r="8" fill="#FF69B4"/>
    <circle cx="180" cy="850" r="5" fill="#FFD700"/>
    <circle cx="180" cy="850" r="2" fill="#FF6B6B"/>
    
    <!-- Flower 2 -->
    <circle cx="380" cy="870" r="7" fill="#FFD700"/>
    <circle cx="380" cy="870" r="4" fill="#FF4500"/>
    <circle cx="380" cy="870" r="2" fill="#FF69B4"/>
    
    <!-- Flower 3 -->
    <circle cx="580" cy="860" r="9" fill="#9370DB"/>
    <circle cx="580" cy="860" r="6" fill="#FFD700"/>
    <circle cx="580" cy="860" r="3" fill="#FF69B4"/>
    
    <!-- Flower 4 -->
    <circle cx="780" cy="880" r="8" fill="#32CD32"/>
    <circle cx="780" cy="880" r="5" fill="#FFD700"/>
    <circle cx="780" cy="880" r="2" fill="#FF6B6B"/>
    
    <!-- Flower 5 -->
    <circle cx="980" cy="850" r="7" fill="#00CED1"/>
    <circle cx="980" cy="850" r="4" fill="#FFD700"/>
    <circle cx="980" cy="850" r="2" fill="#FF69B4"/>
    
    <!-- Flower 6 -->
    <circle cx="1180" cy="870" r="8" fill="#FFD700"/>
    <circle cx="1180" cy="870" r="5" fill="#FF6B6B"/>
    <circle cx="1180" cy="870" r="2" fill="#FF4500"/>
    
    <!-- Flower 7 -->
    <circle cx="1380" cy="860" r="9" fill="#FF69B4"/>
    <circle cx="1380" cy="860" r="6" fill="#FFD700"/>
    <circle cx="1380" cy="860" r="3" fill="#9370DB"/>
    
    <!-- Flower 8 -->
    <circle cx="1580" cy="880" r="7" fill="#32CD32"/>
    <circle cx="1580" cy="880" r="4" fill="#FFD700"/>
    <circle cx="1580" cy="880" r="2" fill="#FF6B6B"/>
    
    <!-- Flower 9 -->
    <circle cx="1780" cy="850" r="8" fill="#FF4500"/>
    <circle cx="1780" cy="850" r="5" fill="#FFD700"/>
    <circle cx="1780" cy="850" r="2" fill="#FF69B4"/>
  </g>
  
  <!-- Sun -->
  <circle cx="1700" cy="100" r="80" fill="#FFD700"/>
  <circle cx="1700" cy="100" r="70" fill="#FFA500"/>
  <circle cx="1700" cy="100" r="60" fill="#FFD700"/>
  <circle cx="1700" cy="100" r="50" fill="#FFA500"/>
  <circle cx="1700" cy="100" r="40" fill="#FFD700"/>
  
  <!-- Sun rays -->
  <g stroke="#FFD700" stroke-width="4" fill="none">
    <line x1="1700" y1="0" x2="1700" y2="30"/>
    <line x1="1700" y1="170" x2="1700" y2="200"/>
    <line x1="1620" y1="100" x2="1650" y2="100"/>
    <line x1="1750" y1="100" x2="1780" y2="100"/>
    <line x1="1640" y1="40" x2="1660" y2="60"/>
    <line x1="1740" y1="140" x2="1760" y2="160"/>
    <line x1="1640" y1="160" x2="1660" y2="140"/>
    <line x1="1740" y1="60" x2="1760" y2="40"/>
  </g>
  
  <!-- Clouds -->
  <g opacity="0.8">
    <!-- Cloud 1 -->
    <ellipse cx="200" cy="100" rx="40" ry="25" fill="#FFFFFF"/>
    <ellipse cx="230" cy="100" rx="50" ry="30" fill="#FFFFFF"/>
    <ellipse cx="260" cy="100" rx="35" ry="22" fill="#FFFFFF"/>
    
    <!-- Cloud 2 -->
    <ellipse cx="600" cy="80" rx="35" ry="20" fill="#FFFFFF"/>
    <ellipse cx="625" cy="80" rx="45" ry="25" fill="#FFFFFF"/>
    <ellipse cx="650" cy="80" rx="30" ry="18" fill="#FFFFFF"/>
    
    <!-- Cloud 3 -->
    <ellipse cx="1000" cy="120" rx="42" ry="28" fill="#FFFFFF"/>
    <ellipse cx="1030" cy="120" rx="55" ry="35" fill="#FFFFFF"/>
    <ellipse cx="1060" cy="120" rx="38" ry="25" fill="#FFFFFF"/>
    
    <!-- Cloud 4 -->
    <ellipse cx="1400" cy="90" rx="38" ry="24" fill="#FFFFFF"/>
    <ellipse cx="1425" cy="90" rx="48" ry="30" fill="#FFFFFF"/>
    <ellipse cx="1450" cy="90" rx="32" ry="20" fill="#FFFFFF"/>
  </g>
</svg>
